<svg width="306" height="86" fill="none" xmlns="http://www.w3.org/2000/svg">
    <path fill-rule="evenodd" clip-rule="evenodd" d="M294.63 53.17c0 .1-.08.18-.17.18-2.52 0-3.87.66-6.02 1.7l-.52.25c-.3.14-.64.05-.98-.15-.35-.2-.72-.55-1.12-.98a29.3 29.3 0 0 1-2.52-3.38l-1.67-2.6-.74-1.17a40 40 0 0 0-.96-1.44 5.4 5.4 0 0 0-.66-.82c-4.22-3.75-10.11-.7-11.12 4.6a16.7 16.7 0 0 1-.81 3c-.3.72-.61 1.19-.98 1.46-.74.54-1.56.19-2.4-.34l-.75-.5a11.1 11.1 0 0 0-2.06-1.2 3.63 3.63 0 0 0-3.41.21c-.39.23-.93.76-1.54 1.46a48.3 48.3 0 0 0-1.86 2.32 122 122 0 0 0-1.55 2.13l-.49.67a5.85 5.85 0 0 1-.18.23l-.06.04c-.01 0-.06.03-.12 0a.18.18 0 0 1-.1-.15c-.2-1.88-1.1-3.9-2.38-5.38-1.27-1.48-2.89-2.39-4.51-2.1-2.63.48-4.15 2.32-5.41 4.55-.4.7-.78 1.45-1.16 2.2l-.65 1.28a17.15 17.15 0 0 1-2.08 3.22c-.1.12-.2.2-.33.22a.54.54 0 0 1-.35-.05c-.2-.1-.4-.3-.57-.51l-.26-.34a10.04 10.04 0 0 0-.47-.56.53.53 0 0 0-.17-.11 6.29 6.29 0 0 0-2.26-.2 11 11 0 0 0-2.27.38c-.98.29-2.24 1.05-3.64 2.01-.76.53-1.55 1.1-2.36 1.7l-2.09 1.5a27.69 27.69 0 0 1-4.44 2.67c-1.39.6-2.68.87-3.7.42-.8-.33-1.5-.7-2.15-1.05l-.34-.18c-.53-.28-1.03-.55-1.55-.8a9.63 9.63 0 0 0-4.35-1c-.83 0-1.3.2-1.6.45-.16.13-.28.28-.4.43l-.14.2-.02.03-.16.23c-.12.15-.25.3-.43.4-.17.1-.38.15-.64.15-.5 0-1.23-.24-2.34-.82-1.66-.86-3.16-2.24-4.63-3.67l-.52-.5a31.99 31.99 0 0 0-4.04-3.53 39.8 39.8 0 0 1-2.34-1.91l-1.17-1a78.8 78.8 0 0 0-5.43-4.24c-1.92-1.35-3.83-2.45-5.41-2.87a3.74 3.74 0 0 0-2.05-.07c-.56.18-1 .56-1.3 1.21-.9 1.98-.84 4.15-.77 6.37l.01.52c.07 2.38.04 4.8-1.36 6.89a18.87 18.87 0 0 0-3.32 10.33c0 .96-.24 3.83-.6 6.32-.18 1.25-.4 2.42-.63 3.22-.11.4-.24.73-.38.93a.53.53 0 0 1-.27.22c-.12.03-.23-.01-.32-.1-.89-.86-2.36-1.29-4.15-1.5-1.53-.18-3.25-.2-4.97-.22h-.85c-2-.04-3.94-.1-5.51-.46-1.56-.35-2.8-1.01-3.28-2.29a9.78 9.78 0 0 1-.52-2.25l-.06-.47a9.86 9.86 0 0 0-.22-1.38 2.09 2.09 0 0 0-.79-1.24 4.08 4.08 0 0 0-2.15-.6c-1.49-.08-2.5-.4-3.18-.92a3.4 3.4 0 0 1-1.22-2.15 18.2 18.2 0 0 1-.24-2.65c0-.14 0-.28-.02-.43a24.89 24.89 0 0 0-.42-3.88c-.05-.23-.1-.57-.15-.96l-.05-.34c-.07-.53-.16-1.12-.28-1.65a5 5 0 0 0-.44-1.3.7.7 0 0 0-.26-.27.3.3 0 0 0-.28 0 69.04 69.04 0 0 1-8.28 2.95l-.18.06c-2.2.68-3.72 1.04-4.78 1.1-1.08.05-1.74-.2-2.19-.83-.22-.3-.39-.67-.53-1.11a19.2 19.2 0 0 1-.4-1.52l-.03-.07c-.28-1.14-.62-2.54-1.27-4.22a9.25 9.25 0 0 0-2.25-3.33c-.4-.4-.82-.77-1.25-1.16l-.16-.14c-.49-.44-1-.9-1.5-1.41a8.79 8.79 0 0 0-1.6-1.2l-.95-.56-1.2-.74a12.1 12.1 0 0 1-1.93-1.44c-.52-.5-.91-1.06-.97-1.68-.13-1.25-.55-1.83-1.1-2.03-.56-.22-1.32-.06-2.14.32a18.28 18.28 0 0 0-4.1 3l-2.61 2.4c-6.3 5.79-11.96 11-16.12 19.47l-.03.07c-.38.78-1.7 3.48-2.99 5.22-.33.45-.66.84-.98 1.12-.31.27-.63.46-.94.45-.32 0-.58-.23-.76-.65a5.74 5.74 0 0 1-.32-1.9c-.1-2.56-.92-5.3-1.97-7.97a95.8 95.8 0 0 0-2.65-5.95l-.7-1.5c-4.27-9.16-9-18.59-16.42-24.62l-1.45-1.17c-1.16-.92-2-1.6-2.77-2.4-1.05-1.13-1.94-2.52-3.32-5.23l-.3-.6c-1.4-2.77-2.9-5.73-4.76-7.77a7.72 7.72 0 0 0-3.28-2.3 5.73 5.73 0 0 0-4.1.3 5.5 5.5 0 0 0-1.69 1.3c-.58.6-1.16 1.36-1.71 2.14a59.12 59.12 0 0 0-2.76 4.38c-4.48 7.4-10.23 13.17-16.04 19l-2.8 2.84c-.07.07-.17.06-.23-.02a.21.21 0 0 1 .01-.26l2.81-2.84c5.82-5.84 11.53-11.58 15.99-18.94l.39-.65a58.58 58.58 0 0 1 2.37-3.75 19.3 19.3 0 0 1 1.76-2.18c.6-.62 1.2-1.12 1.8-1.37a6 6 0 0 1 4.29-.31c1.27.4 2.4 1.27 3.42 2.39 1.88 2.07 3.4 5.08 4.8 7.83l.31.62c1.37 2.7 2.24 4.05 3.26 5.14.74.79 1.56 1.44 2.71 2.35l1.48 1.19c7.49 6.09 12.25 15.6 16.51 24.74l.7 1.5a96.4 96.4 0 0 1 2.67 5.98c1.05 2.68 1.88 5.48 2 8.12.03.84.14 1.4.28 1.74.14.33.3.44.48.44.2 0 .44-.11.74-.37.29-.26.6-.63.93-1.07a38.31 38.31 0 0 0 2.95-5.16l.03-.06c4.19-8.55 9.91-13.8 16.2-19.58l2.6-2.4a18.4 18.4 0 0 1 4.2-3.06c.83-.4 1.67-.6 2.35-.33.7.27 1.19 1 1.32 2.35.05.47.35.95.85 1.43.5.49 1.17.95 1.88 1.4l1.2.72.95.58c.67.42 1.28.83 1.67 1.24.5.51.99.96 1.48 1.4l.16.14c.43.39.86.77 1.26 1.17a9.63 9.63 0 0 1 2.33 3.47c.67 1.7 1.02 3.13 1.3 4.26l.01.08c.15.57.27 1.07.4 1.48.14.42.29.75.48 1 .36.5.9.75 1.92.7a21.7 21.7 0 0 0 4.72-1.1l.17-.04c2.8-.87 5.56-1.72 8.25-2.94a.59.59 0 0 1 .53 0c.16.08.29.23.4.4a5 5 0 0 1 .48 1.42c.13.55.22 1.15.3 1.69l.05.35.14.92c.29 1.45.37 2.78.43 3.95l.02.43c.04 1 .08 1.85.23 2.58.17.83.47 1.47 1.08 1.93.6.47 1.55.77 3.01.86a4.3 4.3 0 0 1 2.31.65c.52.37.78.87.93 1.45.12.44.18.94.24 1.46l.05.44c.09.69.21 1.41.5 2.16.41 1.1 1.5 1.72 3.04 2.07 1.54.35 3.46.41 5.45.44l.85.01c1.72.02 3.46.04 5 .23 1.8.2 3.36.64 4.32 1.58.04.03.05.02.05.02s.04-.02.09-.1c.1-.14.21-.4.32-.8.23-.77.44-1.92.62-3.16.36-2.49.6-5.33.6-6.26 0-3.9 1.4-7.6 3.39-10.56 1.32-1.98 1.35-4.26 1.29-6.65l-.02-.53c-.06-2.2-.13-4.48.8-6.54.35-.75.87-1.2 1.51-1.4.64-.2 1.4-.15 2.2.06 1.64.44 3.59 1.56 5.52 2.91a79.05 79.05 0 0 1 6.64 5.27c1.03.88 1.84 1.57 2.3 1.88 1.45 1 2.78 2.3 4.08 3.57l.52.5c1.47 1.43 2.94 2.78 4.55 3.62 1.1.57 1.78.78 2.22.78.21 0 .37-.04.49-.12.12-.07.22-.17.32-.3l.16-.22c.05-.07.1-.16.17-.24.12-.16.26-.33.45-.49.38-.3.91-.53 1.79-.53 1.84 0 3.2.44 4.47 1.04.53.25 1.04.52 1.57.8l.34.19c.65.35 1.34.7 2.11 1.04.92.4 2.11.18 3.48-.43 1.37-.6 2.87-1.57 4.4-2.64l2.07-1.5 2.37-1.7c1.4-.96 2.7-1.74 3.74-2.05a11.3 11.3 0 0 1 2.32-.39c.85-.05 1.71 0 2.37.21.1.04.2.1.28.18.1.08.18.18.26.28.09.1.17.22.25.33l.26.32c.17.21.32.37.46.43.06.03.11.04.16.03.05-.01.1-.04.16-.11.79-.91 1.42-2 2.03-3.16l.65-1.26c.38-.76.76-1.51 1.17-2.23 1.28-2.26 2.87-4.22 5.63-4.71 1.76-.32 3.48.67 4.8 2.2a10.82 10.82 0 0 1 2.41 5.21l.42-.59c.41-.56.96-1.33 1.57-2.14.6-.8 1.26-1.64 1.87-2.34.6-.7 1.18-1.27 1.62-1.53a3.92 3.92 0 0 1 3.67-.23c.77.32 1.5.8 2.14 1.25l.72.48c.85.53 1.5.76 2.07.35.29-.22.58-.62.86-1.3.27-.69.53-1.63.78-2.92 1.06-5.55 7.22-8.75 11.63-4.82.2.17.44.48.72.88.28.4.6.9.97 1.45l.75 1.18c.52.83 1.09 1.72 1.66 2.58.86 1.3 1.72 2.51 2.49 3.34.38.42.73.74 1.04.92.3.18.54.22.7.14l.53-.26c2.15-1.04 3.55-1.71 6.14-1.71.1 0 .17.08.17.19Z" fill="#fff"/>
    <path d="M24.57 3.8h.91c.55 0 .8-.33.8-.75 0-.43-.26-.67-.5-.68v-.03c.22-.06.4-.24.4-.58 0-.4-.24-.72-.74-.72h-.87v2.75Zm.36-.36v-.89h.53c.28 0 .46.22.46.48 0 .23-.13.4-.48.4h-.51Zm0-1.21v-.84h.49c.28 0 .42.17.42.4 0 .27-.2.44-.43.44h-.48Zm2.26 1.57h1.5v-.37h-1.14V2.6h1.04v-.36h-1.04V1.4h1.12v-.35H27.2V3.8Zm2.27 0h.1c.54 0 .67-.47.7-1.36l.03-1.05h.81v2.4h.35V1.04h-1.5l-.03 1.29c-.03.8-.11 1.09-.4 1.1h-.06v.36Zm3-2.76v2.75h.33l1.2-2.02h.02V3.8h.36V1.04h-.33l-1.2 2.02h-.03V1.04h-.35Zm4.32 2.76h.43l-.97-1.52.98-1.24h-.44l-.92 1.16h-.12V1.04h-.36v2.75h.36V2.56h.24l.8 1.23Zm1.28-2.76v2.75h.33l1.2-2.02h.03V3.8h.35V1.04h-.33l-1.2 2.02h-.02V1.04h-.36Zm2.92 0v2.75h.33l1.2-2.02h.02V3.8h.36V1.04h-.33l-1.2 2.02h-.03V1.04h-.35Zm1.18-.7c0 .13-.06.25-.22.25-.17 0-.23-.12-.23-.25h-.28c0 .3.2.5.5.5.32 0 .52-.2.52-.5h-.29Zm-19.06 8h.35v-1.2h1.18v1.2h.36V5.58h-.36v1.2h-1.18v-1.2h-.36v2.76Zm4.95-1.38c0-.88-.45-1.41-1.07-1.41-.61 0-1.06.53-1.06 1.41 0 .88.45 1.42 1.06 1.42.62 0 1.07-.54 1.07-1.42Zm-.35 0c0 .67-.3 1.04-.72 1.04-.4 0-.7-.37-.7-1.04s.3-1.03.7-1.03c.41 0 .72.36.72 1.03Zm1.28 1.38h.9c.56 0 .8-.32.8-.74 0-.43-.25-.67-.48-.68v-.03c.21-.07.4-.24.4-.58 0-.41-.25-.73-.75-.73h-.87v2.76Zm.36-.36V7.1h.53c.28 0 .46.22.46.48 0 .23-.13.4-.48.4h-.51Zm0-1.2v-.84h.49c.28 0 .41.17.41.4 0 .27-.18.44-.42.44h-.48Zm3.73-1.2H31.6v2.76h.35v-2.4h1.12v-.36Zm2.85 1.38c0-.88-.45-1.41-1.07-1.41-.61 0-1.06.53-1.06 1.41 0 .88.45 1.42 1.06 1.42.62 0 1.07-.54 1.07-1.42Zm-.35 0c0 .67-.31 1.04-.72 1.04-.4 0-.7-.37-.7-1.04s.3-1.03.7-1.03c.41 0 .72.36.72 1.03Zm1.28 1.38h.36v-.97h.48c.55 0 .82-.39.82-.9 0-.5-.27-.89-.82-.89h-.84v2.76Zm.36-1.32V5.94h.45c.35 0 .5.22.5.54 0 .3-.15.54-.5.54h-.45Zm4.26-.06c0-.88-.45-1.41-1.06-1.41-.62 0-1.07.53-1.07 1.41 0 .88.45 1.42 1.07 1.42.61 0 1.06-.54 1.06-1.42Zm-.35 0c0 .67-.3 1.04-.71 1.04-.4 0-.71-.37-.71-1.04s.3-1.03.7-1.03c.42 0 .72.36.72 1.03ZM42.23 9h.34v-.66h1.59V9h.34V8h-.27V5.6h-1.46l-.05 1.16c-.04.76-.18 1.08-.34 1.24h-.15v1Zm.57-1c.14-.25.23-.66.26-1.24l.04-.8h.79V8H42.8ZM2.4 47.65H.56v2.76h.35V48h1.12v2.4h.35v-2.76Zm2.99.9c-.08-.6-.48-.94-.98-.94-.6 0-1.06.54-1.06 1.42 0 .88.45 1.41 1.06 1.41.52 0 .9-.38.98-.92h-.36c-.06.35-.32.54-.61.54-.41 0-.72-.36-.72-1.03s.3-1.04.72-1.04c.3 0 .55.2.61.56h.36ZM7.7 50.4h.44l-.97-1.5.98-1.25H7.7l-.92 1.16h-.12v-1.16H6.3v2.76h.36v-1.24h.25l.8 1.24Zm3.23-1.37c0-.88-.46-1.42-1.07-1.42-.61 0-1.06.54-1.06 1.42 0 .88.45 1.41 1.06 1.41.61 0 1.07-.53 1.07-1.41Zm-.36 0c0 .67-.3 1.03-.7 1.03-.42 0-.72-.36-.72-1.03s.3-1.04.71-1.04c.4 0 .71.37.71 1.04Zm1.29 1.37h.9c.56 0 .8-.31.8-.74 0-.42-.25-.66-.49-.68v-.03c.22-.06.4-.23.4-.58 0-.4-.24-.72-.74-.72h-.87v2.76Zm.36-.35v-.88h.52c.3 0 .47.21.47.47 0 .23-.14.4-.48.4h-.51Zm0-1.2V48h.48c.29 0 .42.18.42.4 0 .27-.18.44-.43.44h-.47Zm41.42 9.39h.74v2.4h.36v-2.4h.73v-.36h-1.83v.36Zm2.73 2.4h.9c.55 0 .8-.32.8-.74 0-.43-.25-.67-.49-.69v-.02c.22-.07.4-.24.4-.59 0-.4-.24-.72-.75-.72h-.86v2.76Zm.35-.36v-.88h.53c.29 0 .47.21.47.48 0 .23-.14.4-.48.4h-.52Zm0-1.2v-.85h.5c.27 0 .41.18.41.4 0 .27-.19.44-.43.44h-.48Zm2.26 1.56h1.5v-.36h-1.14v-.84h1.05v-.36h-1.05v-.84h1.13v-.36h-1.49v2.76Zm2.45 0h.36v-.97h.48c.55 0 .82-.39.82-.9 0-.5-.27-.89-.82-.89h-.84v2.76Zm.36-1.32v-1.08h.45c.35 0 .5.22.5.53 0 .32-.15.55-.5.55h-.45Zm2.57-.32v-1.12H64v2.76h.89c.52 0 .82-.34.82-.84 0-.5-.3-.8-.82-.8h-.53Zm0 .34h.53c.3 0 .47.2.47.46 0 .25-.17.49-.47.49h-.53v-.95Zm21.21 9.63v-2.75h-.84c-.55 0-.82.36-.82.86 0 .37.14.65.43.78l-.52 1.11h.4l.48-1.04h.51v1.04h.36Zm-.36-1.4h-.45c-.35 0-.5-.18-.5-.49s.15-.5.5-.5h.45v1Zm1.37 1.4h.35v-.96h.49c.55 0 .82-.4.82-.9s-.27-.9-.82-.9h-.84v2.76Zm.35-1.32v-1.08h.45c.35 0 .5.23.5.54 0 .31-.15.54-.5.54h-.45Zm4.27-.05c0-.89-.45-1.42-1.07-1.42-.61 0-1.06.53-1.06 1.42 0 .88.45 1.41 1.06 1.41.62 0 1.07-.53 1.07-1.41Zm-.36 0c0 .67-.3 1.03-.7 1.03-.41 0-.72-.36-.72-1.03 0-.68.3-1.04.71-1.04s.71.36.71 1.04Zm3.26-.49c-.09-.58-.48-.93-.98-.93-.61 0-1.07.53-1.07 1.42 0 .88.45 1.41 1.07 1.41.52 0 .9-.38.98-.92h-.36c-.07.35-.32.54-.62.54-.4 0-.71-.36-.71-1.03s.3-1.04.71-1.04c.3 0 .56.2.62.55h.36Zm.73 1.86h.1c.54 0 .67-.46.7-1.35l.04-1.05h.8v2.4h.36v-2.75h-1.5l-.04 1.3c-.02.8-.1 1.08-.39 1.1h-.07v.35Zm3.21 0 .21-.72h.93l.21.72h.38l-.85-2.75h-.41l-.85 2.75h.38Zm.32-1.07.34-1.18h.02l.35 1.18h-.71Zm2.24 1.07h.9c.56 0 .8-.31.8-.74 0-.42-.25-.66-.49-.68v-.03c.22-.06.4-.23.4-.58 0-.4-.24-.72-.74-.72h-.87v2.75Zm.36-.35v-.88h.53c.28 0 .46.21.46.47 0 .23-.14.4-.48.4h-.51Zm0-1.2v-.85h.48c.29 0 .42.18.42.4 0 .27-.19.44-.42.44h-.48Zm2.08 1.55h.1c.54 0 .67-.46.7-1.35l.03-1.05h.81v2.4h.35v-2.75h-1.5l-.03 1.3c-.03.8-.11 1.08-.4 1.1h-.06v.35Zm3.36-1.64v-1.11h-.36v2.75h.89c.53 0 .83-.34.83-.83 0-.5-.3-.81-.83-.81h-.53Zm0 .35h.53c.3 0 .47.2.47.45 0 .26-.17.5-.47.5h-.53v-.95Zm4.58-24.2v2.76h.34v-2h.03l.7 2h.28l.7-2h.02v2h.33v-2.76h-.43l-.75 2.14h-.03l-.75-2.14h-.44Zm3.67 2.76.22-.73h.92l.22.73h.38l-.86-2.76h-.4l-.86 2.76h.38Zm.32-1.08.35-1.18h.02l.35 1.18h-.72Zm2.25 1.08h.35v-1.2h1.18v1.2h.36v-2.76h-.36v1.2h-1.18v-1.2h-.35v2.76Zm2.78-2.4h.74v2.4h.35v-2.4h.74v-.36H120v.36Zm2.9 2.43h.15c.37 0 .5-.24.6-.51l.82-2.28h-.38l-.55 1.6-.62-1.6h-.38l.83 2.07-.03.1c-.05.14-.13.26-.3.26h-.15v.36Zm2.4-.03h.35v-.97h.48c.55 0 .82-.39.82-.9 0-.5-.27-.89-.82-.89h-.84v2.76Zm.35-1.33v-1.07h.45c.35 0 .5.22.5.53 0 .31-.15.54-.5.54h-.45Zm4.26-.05c0-.88-.45-1.42-1.06-1.42-.61 0-1.07.54-1.07 1.42 0 .88.46 1.41 1.07 1.41.61 0 1.06-.53 1.06-1.41Zm-.35 0c0 .67-.3 1.03-.71 1.03-.4 0-.71-.36-.71-1.03s.3-1.04.7-1.04c.42 0 .72.37.72 1.04Zm1.29 1.38h.9c.55 0 .8-.32.8-.75 0-.42-.26-.66-.49-.68v-.02c.22-.07.4-.24.4-.59 0-.4-.24-.72-.75-.72h-.86v2.76Zm.35-.36V45h.53c.29 0 .47.21.47.47 0 .24-.14.41-.48.41h-.52Zm0-1.2v-.85h.5c.27 0 .4.18.4.4 0 .27-.18.44-.42.44h-.48Zm4.32.18c0-.88-.46-1.42-1.07-1.42-.61 0-1.06.54-1.06 1.42 0 .88.45 1.41 1.06 1.41.61 0 1.07-.53 1.07-1.41Zm-.36 0c0 .67-.3 1.03-.7 1.03-.42 0-.72-.36-.72-1.03s.3-1.04.71-1.04c.4 0 .71.37.71 1.04Zm-5.7 11.99h.44l-.98-1.51.98-1.25h-.44l-.92 1.17h-.12v-1.17h-.36v2.76h.36V55.6h.24l.8 1.24Zm3.22-1.38c0-.88-.45-1.42-1.06-1.42-.62 0-1.07.54-1.07 1.42 0 .88.45 1.42 1.07 1.42.61 0 1.06-.54 1.06-1.42Zm-.35 0c0 .67-.3 1.04-.71 1.04-.4 0-.71-.37-.71-1.04s.3-1.04.7-1.04c.41 0 .72.37.72 1.04Zm1.07-1.02h.74v2.4h.35v-2.4h.74v-.36h-1.83v.36Zm2.72 2.4h1.5v-.36h-1.14v-.84h1.05v-.36h-1.05v-.84h1.13v-.36h-1.49v2.76Zm2.28 0h.1c.53 0 .66-.47.7-1.35l.03-1.05h.8v2.4h.36v-2.76h-1.5l-.04 1.3c-.02.8-.1 1.09-.39 1.1h-.07v.36Zm3.36-1.65v-1.1h-.36v2.75h.88c.53 0 .83-.34.83-.84 0-.49-.3-.8-.83-.8h-.52Zm0 .35h.52c.31 0 .48.2.48.46 0 .25-.17.49-.48.49h-.52v-.95Zm2.27 1.3h.36v-1.2h1.18v1.2h.36v-2.76h-.36v1.2h-1.18v-1.2h-.36v2.76Zm2.91-2.75v2.75h.32l1.2-2.02h.03v2.02h.35v-2.76h-.33l-1.2 2.03h-.02v-2.03h-.35Zm2.96 0v.9c0 .62.32.86.84.86.22 0 .42-.03.59-.1v1.09h.35v-2.76h-.35v1.32c-.18.06-.4.1-.6.1-.3 0-.48-.13-.48-.5v-.92h-.35Zm3.84 1.2h-1.05v.35h1.05v-.35Zm1.77-1.2h-.33c-.01.07-.2.42-.54.42v.34c.27 0 .45-.13.5-.2h.01v2.19h.36v-2.76Zm16.79 14.77h-1.48v2.76h.36v-2.4h1.12v-.36Zm.7 2.76h.1c.55 0 .68-.47.7-1.35l.04-1.06h.81v2.4h.35v-2.75h-1.5l-.03 1.3c-.03.8-.11 1.09-.4 1.1h-.06v.36Zm3.21 0 .22-.73h.92l.22.73h.38l-.85-2.76h-.42l-.85 2.76h.38Zm.32-1.08.35-1.18h.02l.35 1.18h-.72Zm3.04 1.12c.48 0 .83-.34.83-.8 0-.35-.18-.6-.5-.65v-.03c.26-.07.42-.3.41-.6 0-.41-.28-.76-.73-.76-.44 0-.79.3-.8.76h.35c0-.26.21-.4.44-.4.24 0 .4.16.4.42s-.18.44-.44.44h-.2v.34h.2c.32 0 .51.2.51.47 0 .27-.2.45-.47.45-.26 0-.46-.16-.47-.4h-.37c.02.45.36.76.84.76Zm3.84-1.42c0-.88-.45-1.42-1.06-1.42-.61 0-1.07.54-1.07 1.42 0 .88.46 1.42 1.07 1.42.61 0 1.06-.54 1.06-1.42Zm-.35 0c0 .67-.3 1.04-.71 1.04-.4 0-.71-.37-.71-1.04s.3-1.04.71-1.04c.4 0 .71.37.71 1.04Zm1.29 1.38h.9c.55 0 .8-.32.8-.74 0-.43-.26-.67-.49-.69v-.02c.22-.07.4-.24.4-.58 0-.41-.24-.73-.75-.73h-.86v2.76Zm.35-.36v-.88h.53c.29 0 .47.21.47.48 0 .23-.14.4-.48.4h-.52Zm0-1.2v-.84h.5c.27 0 .4.17.4.4 0 .26-.18.43-.42.43h-.48Zm-11.35-25.63h-1.83v2.75h.36v-2.4h1.11v2.4h.36v-2.75Zm1.03 2.76h1.5v-.37h-1.14V46h1.05v-.36h-1.05v-.84h1.12v-.35h-1.48v2.75Zm2.45 0h.35v-.98h.49c.55 0 .82-.38.82-.9 0-.5-.27-.88-.82-.88h-.84v2.75Zm.35-1.33V44.8h.45c.36 0 .5.23.5.54 0 .31-.14.54-.5.54h-.44Zm2.22-1.43v2.75h.34v-2h.02l.7 2h.28l.7-2h.02v2h.33v-2.75h-.43l-.75 2.14h-.03l-.75-2.14h-.43Zm3.82 1.11v-1.11h-.35v2.75h.88c.53 0 .83-.34.83-.83 0-.5-.3-.81-.83-.81h-.53Zm0 .35h.53c.3 0 .47.2.47.45 0 .26-.16.5-.47.5h-.53v-.95ZM195.1 59h.73v2.4h.36V59h.74v-.36h-1.84V59Zm3.07-.36h-.35v2.76h.35v-1.18h.42c.06.76.5 1.21 1.06 1.21.6 0 1.06-.53 1.06-1.41 0-.88-.45-1.42-1.06-1.42-.59 0-1.02.48-1.07 1.28h-.4v-1.24Zm2.19 1.38c0 .67-.3 1.03-.71 1.03s-.72-.36-.72-1.03.3-1.04.72-1.04c.4 0 .7.37.7 1.04Zm1.22-1.38v2.76h.34v-2h.02l.7 2h.28l.7-2h.02v2h.34v-2.76h-.43l-.75 2.14h-.03l-.75-2.14h-.44Zm3.47 2.76h1.5v-.36h-1.14v-.85h1.05v-.35h-1.05V59h1.12v-.36h-1.48v2.76Zm2.45 0h.35v-1.2h1.18v1.2h.36v-2.76h-.36v1.2h-1.18v-1.2h-.35v2.76Zm3.26-1.65v-1.11h-.36v2.76h.89c.52 0 .82-.35.82-.84 0-.5-.3-.8-.82-.8h-.53Zm0 .35h.53c.3 0 .47.2.47.45 0 .26-.17.5-.47.5h-.53v-.95Zm16.54 8.25c0-.88-.46-1.41-1.07-1.41-.61 0-1.07.53-1.07 1.41 0 .88.46 1.42 1.07 1.42.61 0 1.06-.53 1.06-1.42Zm-.36 0c0 .68-.3 1.04-.71 1.04-.4 0-.71-.36-.71-1.04 0-.67.3-1.03.71-1.03.4 0 .71.36.71 1.03Zm1.29-1.37v2.75h.34v-2h.02l.7 2h.28l.7-2h.02v2h.34v-2.75h-.44l-.75 2.14h-.03l-.75-2.14h-.43Zm5.43.89c-.08-.59-.48-.93-.98-.93-.61 0-1.06.53-1.06 1.41 0 .89.45 1.42 1.06 1.42.52 0 .9-.38.98-.92h-.36a.61.61 0 0 1-.62.54c-.4 0-.7-.36-.7-1.04 0-.66.3-1.03.7-1.03.3 0 .56.2.62.55h.36Zm2.31 1.86h.44l-.98-1.5.98-1.25h-.44l-.92 1.16h-.12v-1.16h-.36v2.75h.36V68.5h.25l.8 1.23ZM262.4 39.8h.43l-.98-1.52.98-1.24h-.44l-.92 1.16h-.12v-1.16h-.36v2.75h.36v-1.23h.24l.8 1.23Zm1.28 0h.35v-.98h.49c.55 0 .82-.38.82-.89 0-.5-.27-.9-.82-.9h-.84v2.76Zm.35-1.33V37.4h.45c.35 0 .5.23.5.54 0 .31-.15.54-.5.54h-.45Zm2.17 1.33.21-.74h.92l.22.73h.38l-.85-2.75h-.41l-.86 2.75h.38Zm.31-1.09.35-1.17h.02l.35 1.17h-.72Zm4.1-.78c-.08-.59-.48-.93-.98-.93-.6 0-1.06.53-1.06 1.42 0 .88.45 1.41 1.06 1.41.52 0 .9-.38.98-.92h-.36c-.06.35-.31.54-.61.54-.4 0-.71-.36-.71-1.03s.3-1.04.7-1.04c.31 0 .56.2.62.55h.36Zm.92 1.87h.35v-1.2h1.18v1.2h.36v-2.76h-.36v1.2h-1.18v-1.2h-.35v2.75Zm4.95-1.38c0-.89-.45-1.42-1.06-1.42-.62 0-1.07.53-1.07 1.42 0 .88.45 1.41 1.07 1.41.61 0 1.06-.53 1.06-1.41Zm-.35 0c0 .67-.3 1.03-.71 1.03s-.71-.36-.71-1.03c0-.68.3-1.04.7-1.04.41 0 .72.36.72 1.04ZM279 39.8v-2.76h-.85c-.55 0-.82.35-.82.86 0 .37.15.65.44.78l-.53 1.11h.4l.49-1.04h.51v1.04h.35Zm-.36-1.4h-.46c-.34 0-.49-.19-.49-.5s.15-.5.5-.5h.45v1Zm1.36 1.4h.36v-.98h.48c.55 0 .82-.38.82-.89 0-.5-.27-.9-.82-.9H280v2.76Zm.36-1.33V37.4h.44c.36 0 .5.23.5.54 0 .31-.14.54-.5.54h-.44Zm4.17-.54c-.08-.59-.47-.93-.97-.93-.62 0-1.07.53-1.07 1.42 0 .88.45 1.41 1.06 1.41.52 0 .9-.38.98-.92h-.36c-.06.35-.31.54-.61.54-.4 0-.71-.36-.71-1.03s.3-1.04.7-1.04c.3 0 .56.2.62.55h.36Zm2.32 1.87h.43l-.97-1.52.98-1.24h-.44l-.92 1.16h-.13v-1.16h-.35v2.75h.35v-1.23h.25l.8 1.23Zm-1.53 21.63h.17c.37 0 .49-.24.6-.51l.8-2.28h-.37l-.55 1.6-.62-1.6h-.38l.83 2.07-.03.1c-.05.14-.13.26-.3.26h-.15v.36Zm2.23-.03h.1c.54 0 .66-.47.7-1.36l.03-1.05h.81v2.4h.35v-2.75h-1.5l-.03 1.3c-.03.8-.11 1.08-.4 1.1h-.06v.36Zm3.2 0 .22-.73h.92l.22.73h.38l-.86-2.76h-.4l-.86 2.76h.38Zm.32-1.08.35-1.18h.02l.35 1.18h-.72Zm2.24 1.08h.36v-1.2h1.18v1.2h.36v-2.76h-.36v1.2h-1.18v-1.2h-.36v2.76Zm3.92-1.56h-1.05v.35h1.05v-.35Zm.94 1.59h.16c.37 0 .5-.24.6-.51l.81-2.28h-.37l-.55 1.6-.62-1.6h-.38l.83 2.07-.03.1c-.05.14-.13.26-.3.26h-.15v.36Zm2.23.63h.33v-.66h1.6v.66h.33v-1.02h-.27v-2.4h-1.45l-.06 1.16c-.03.77-.18 1.09-.33 1.24h-.16v1.02Zm.57-1.02c.13-.25.22-.65.25-1.24l.04-.8h.8v2.04h-1.1Zm2.5-.52c.04.52.33.91.9.91.58 0 .94-.5.94-1.27v-.28c0-.78-.37-1.28-.95-1.28-.56 0-.85.4-.9.93h.37c.04-.36.18-.57.53-.57.38 0 .59.36.59.91h-.87v.36h.87c-.02.48-.2.85-.57.85-.36 0-.51-.2-.55-.56h-.36Z" fill="#fff"/>
    <path d="M35.2 13.01c0 .74-.51 1.33-1.14 1.33-.63 0-1.14-.6-1.14-1.33 0-.73.51-1.32 1.14-1.32.63 0 1.13.6 1.13 1.32Z" fill="#272722"/>
    <path fill-rule="evenodd" clip-rule="evenodd" d="M34.06 13.96c.45 0 .8-.42.8-.95 0-.52-.35-.94-.8-.94-.45 0-.81.42-.81.94 0 .53.36.95.8.95Zm0 .38c.63 0 1.13-.6 1.13-1.33 0-.73-.5-1.32-1.13-1.32-.63 0-1.14.6-1.14 1.32 0 .74.51 1.33 1.14 1.33Z" fill="#fff"/>
    <path d="M7.3 43.77c0 .73-.5 1.32-1.13 1.32-.63 0-1.14-.59-1.14-1.32 0-.73.51-1.32 1.14-1.32.63 0 1.13.59 1.13 1.32Z" fill="#131313"/>
    <path fill-rule="evenodd" clip-rule="evenodd" d="M6.17 44.72c.45 0 .8-.43.8-.95s-.35-.94-.8-.94c-.45 0-.81.42-.81.94s.36.95.8.95Zm0 .37c.63 0 1.13-.59 1.13-1.32 0-.73-.5-1.32-1.13-1.32-.63 0-1.14.59-1.14 1.32 0 .73.51 1.32 1.14 1.32Z" fill="#fff"/>
    <path d="M70.4 59.34c0 .74-.5 1.33-1.13 1.33-.63 0-1.14-.6-1.14-1.33 0-.73.51-1.32 1.14-1.32.63 0 1.14.6 1.14 1.32Z" fill="#4D5648"/>
    <path fill-rule="evenodd" clip-rule="evenodd" d="M69.27 60.29c.45 0 .81-.42.81-.95 0-.52-.36-.94-.81-.94-.45 0-.81.42-.81.94 0 .53.36.95.81.95Zm0 .38c.63 0 1.14-.6 1.14-1.33 0-.73-.51-1.32-1.14-1.32-.63 0-1.14.6-1.14 1.32 0 .74.51 1.33 1.14 1.33Z" fill="#fff"/>
    <path d="M80.91 67.62c0 .73-.5 1.32-1.13 1.32-.63 0-1.14-.59-1.14-1.32 0-.73.51-1.33 1.14-1.33.63 0 1.13.6 1.13 1.33Z" fill="#47443E"/>
    <path fill-rule="evenodd" clip-rule="evenodd" d="M79.78 68.56c.45 0 .8-.42.8-.94s-.35-.95-.8-.95c-.45 0-.81.43-.81.95s.36.94.8.94Zm0 .38c.63 0 1.13-.59 1.13-1.32 0-.73-.5-1.33-1.13-1.33-.63 0-1.14.6-1.14 1.33 0 .73.51 1.32 1.14 1.32Z" fill="#fff"/>
    <path d="M109.6 48.42c0 .74-.51 1.33-1.14 1.33-.63 0-1.14-.6-1.14-1.33 0-.73.51-1.32 1.14-1.32.63 0 1.14.6 1.14 1.32Z" fill="#93A47C"/>
    <path fill-rule="evenodd" clip-rule="evenodd" d="M108.46 49.37c.45 0 .81-.42.81-.95 0-.52-.36-.94-.81-.94-.45 0-.81.42-.81.94 0 .53.36.95.8.95Zm0 .38c.63 0 1.14-.6 1.14-1.33 0-.73-.51-1.32-1.14-1.32-.63 0-1.14.6-1.14 1.32 0 .74.51 1.33 1.14 1.33Z" fill="#fff"/>
    <path d="M134.87 61.33c0 .73-.5 1.32-1.14 1.32-.62 0-1.13-.59-1.13-1.32 0-.73.5-1.32 1.13-1.32.63 0 1.14.59 1.14 1.32Z" fill="#738F8C"/>
    <path fill-rule="evenodd" clip-rule="evenodd" d="M133.73 62.28c.45 0 .81-.43.81-.95s-.36-.94-.8-.94c-.45 0-.82.42-.82.94s.37.95.81.95Zm0 .37c.63 0 1.14-.59 1.14-1.32 0-.73-.5-1.32-1.14-1.32-.62 0-1.13.59-1.13 1.32 0 .73.5 1.32 1.13 1.32Z" fill="#fff"/>
    <path d="M168.1 70.27c0 .73-.51 1.32-1.14 1.32-.63 0-1.14-.6-1.14-1.32 0-.73.51-1.33 1.14-1.33.63 0 1.13.6 1.13 1.33Z" fill="#789186"/>
    <path fill-rule="evenodd" clip-rule="evenodd" d="M166.96 71.21c.45 0 .8-.42.8-.94 0-.53-.35-.95-.8-.95-.45 0-.81.42-.81.95 0 .52.36.94.8.94Zm0 .38c.63 0 1.13-.6 1.13-1.32 0-.73-.5-1.33-1.13-1.33-.63 0-1.14.6-1.14 1.33 0 .73.51 1.32 1.14 1.32Z" fill="#fff"/>
    <path d="M178.88 50.74c0 .73-.5 1.33-1.13 1.33-.63 0-1.14-.6-1.14-1.33 0-.73.51-1.32 1.14-1.32.63 0 1.13.6 1.13 1.32Z" fill="#8CBABB"/>
    <path fill-rule="evenodd" clip-rule="evenodd" d="M177.75 51.69c.45 0 .81-.43.81-.95s-.36-.94-.81-.94c-.45 0-.81.42-.81.94s.36.95.8.95Zm0 .38c.63 0 1.13-.6 1.13-1.33 0-.73-.5-1.32-1.13-1.32-.63 0-1.14.6-1.14 1.32 0 .73.51 1.33 1.14 1.33Z" fill="#fff"/>
    <path d="M197.34 65.63c0 .73-.5 1.33-1.13 1.33-.63 0-1.14-.6-1.14-1.33 0-.73.51-1.32 1.14-1.32.63 0 1.13.6 1.13 1.32Z" fill="#414847"/>
    <path fill-rule="evenodd" clip-rule="evenodd" d="M196.2 66.58c.46 0 .82-.42.82-.95 0-.52-.37-.94-.81-.94-.45 0-.81.42-.81.94 0 .53.36.95.8.95Zm0 .38c.64 0 1.14-.6 1.14-1.33 0-.73-.5-1.32-1.13-1.32-.63 0-1.14.6-1.14 1.32 0 .73.51 1.33 1.14 1.33Z" fill="#fff"/>
    <path d="M231.7 60.67c0 .73-.5 1.32-1.13 1.32-.63 0-1.14-.59-1.14-1.32 0-.73.51-1.33 1.14-1.33.63 0 1.14.6 1.14 1.33Z" fill="#577379"/>
    <path fill-rule="evenodd" clip-rule="evenodd" d="M230.57 61.61c.45 0 .81-.42.81-.94s-.36-.95-.81-.95c-.45 0-.81.43-.81.95s.36.94.81.94Zm0 .38c.63 0 1.14-.59 1.14-1.32 0-.73-.51-1.33-1.14-1.33-.63 0-1.14.6-1.14 1.33 0 .73.51 1.32 1.14 1.32Z" fill="#fff"/>
    <path d="M275.58 42.8c0 .73-.5 1.32-1.13 1.32-.63 0-1.14-.6-1.14-1.32 0-.73.51-1.33 1.14-1.33.63 0 1.13.6 1.13 1.33Z" fill="#3E403A"/>
    <path fill-rule="evenodd" clip-rule="evenodd" d="M274.45 43.74c.45 0 .81-.42.81-.94s-.36-.95-.81-.95c-.45 0-.81.43-.81.95s.36.94.8.94Zm0 .38c.63 0 1.13-.6 1.13-1.32 0-.73-.5-1.33-1.13-1.33-.63 0-1.14.6-1.14 1.33 0 .73.51 1.32 1.14 1.32Z" fill="#fff"/>
    <path d="M296.08 53.24c0 .74-.5 1.33-1.13 1.33-.63 0-1.14-.6-1.14-1.33 0-.73.51-1.32 1.14-1.32.63 0 1.13.6 1.13 1.32Z" fill="#181A19"/>
    <path fill-rule="evenodd" clip-rule="evenodd" d="M294.95 54.19c.45 0 .81-.42.81-.95 0-.52-.36-.94-.81-.94-.45 0-.81.42-.81.94 0 .53.36.95.81.95Zm0 .38c.63 0 1.13-.6 1.13-1.33 0-.73-.5-1.32-1.13-1.32-.63 0-1.14.6-1.14 1.32 0 .74.51 1.33 1.14 1.33Z" fill="#fff"/>
</svg>